<svg width="84" height="29" viewBox="0 0 84 29" fill="none" xmlns="http://www.w3.org/2000/svg">
<rect x="0.5" y="0.5" width="83" height="28" rx="9.5" stroke="white"/>
<line x1="22.25" y1="7" x2="22.25" y2="21" stroke="white" stroke-width="0.5"/>
<line x1="61.25" y1="7" x2="61.25" y2="21" stroke="white" stroke-width="0.5"/>
<path d="M75.358 14.422H72.376V17.446H71.186V14.422H68.218V13.344H71.186V10.306H72.376V13.344H75.358V14.422Z" fill="white"/>
<path d="M14.398 13.33V14.408H8.812V13.33H14.398Z" fill="white"/>
<path d="M33.868 13.834C33.868 12.2287 34.1293 10.978 34.652 10.082C35.1747 9.17667 36.0893 8.724 37.396 8.724C38.6933 8.724 39.6033 9.17667 40.126 10.082C40.6487 10.978 40.91 12.2287 40.91 13.834C40.91 15.4673 40.6487 16.7367 40.126 17.642C39.6033 18.5473 38.6933 19 37.396 19C36.0893 19 35.1747 18.5473 34.652 17.642C34.1293 16.7367 33.868 15.4673 33.868 13.834ZM39.65 13.834C39.65 13.022 39.594 12.336 39.482 11.776C39.3793 11.2067 39.16 10.7493 38.824 10.404C38.4973 10.0587 38.0213 9.886 37.396 9.886C36.7613 9.886 36.276 10.0587 35.94 10.404C35.6133 10.7493 35.394 11.2067 35.282 11.776C35.1793 12.336 35.128 13.022 35.128 13.834C35.128 14.674 35.1793 15.3787 35.282 15.948C35.394 16.5173 35.6133 16.9747 35.94 17.32C36.276 17.6653 36.7613 17.838 37.396 17.838C38.0213 17.838 38.4973 17.6653 38.824 17.32C39.16 16.9747 39.3793 16.5173 39.482 15.948C39.594 15.3787 39.65 14.674 39.65 13.834ZM42.505 17.978C43.6903 17.026 44.619 16.2467 45.291 15.64C45.963 15.024 46.5277 14.3847 46.985 13.722C47.4517 13.05 47.685 12.392 47.685 11.748C47.685 11.1413 47.5357 10.6653 47.237 10.32C46.9477 9.96533 46.4763 9.788 45.823 9.788C45.1883 9.788 44.6937 9.98867 44.339 10.39C43.9937 10.782 43.807 11.3093 43.779 11.972H42.547C42.5843 10.9267 42.9017 10.1193 43.499 9.55C44.0963 8.98067 44.8663 8.696 45.809 8.696C46.7703 8.696 47.531 8.962 48.091 9.494C48.6603 10.026 48.945 10.7587 48.945 11.692C48.945 12.4667 48.7117 13.2227 48.245 13.96C47.7877 14.688 47.265 15.332 46.677 15.892C46.089 16.4427 45.3377 17.0867 44.423 17.824H49.239V18.888H42.505V17.978Z" fill="white"/>
</svg>
